<svg xmlns="http://www.w3.org/2000/svg" width="24" height="24" viewBox="0 0 24 24" fill="none">
  <g opacity="0.5">
    <path d="M6.20117 18.744C6.46536 17.9452 6.9747 17.25 7.65675 16.7574C8.33879 16.2648 9.15881 15.9997 10.0002 16H14.0002C14.841 15.9997 15.6605 16.2644 16.3423 16.7565C17.0241 17.2485 17.5335 17.9429 17.7982 18.741M12 13C12.7956 13 13.5587 12.6839 14.1213 12.1213C14.6839 11.5587 15 10.7956 15 10C15 9.20435 14.6839 8.44129 14.1213 7.87868C13.5587 7.31607 12.7956 7 12 7C11.2044 7 10.4413 7.31607 9.87868 7.87868C9.31607 8.44129 9 9.20435 9 10C9 10.7956 9.31607 11.5587 9.87868 12.1213C10.4413 12.6839 11.2044 13 12 13ZM19.875 6.26959C20.575 6.66759 21.005 7.41259 21 8.21759V15.5016C21 16.3106 20.557 17.0566 19.842 17.4496L13.092 21.7196C12.7574 21.9033 12.3818 21.9996 12 21.9996C11.6182 21.9996 11.2426 21.9033 10.908 21.7196L4.158 17.4496C3.80817 17.2584 3.51612 16.9768 3.31241 16.6341C3.1087 16.2914 3.0008 15.9003 3 15.5016V8.21659C3 7.40759 3.443 6.66259 4.158 6.26959L10.908 2.28959C11.2525 2.09963 11.6396 2 12.033 2C12.4264 2 12.8135 2.09963 13.158 2.28959L19.908 6.26959H19.875Z" stroke="#F1F2EC" stroke-width="1.5" stroke-linecap="round" stroke-linejoin="round"/>
  </g>
</svg>