<svg width="24" height="24" viewBox="0 0 24 24" fill="none" xmlns="http://www.w3.org/2000/svg">
<path d="M18.5385 14.4516C18.0874 14.4522 17.7221 14.8175 17.7209 15.2686V17.2299C17.7203 17.5008 17.5015 17.7196 17.2305 17.7202H6.77073C6.49982 17.7196 6.28101 17.5008 6.2804 17.2299V15.2686C6.2804 14.8175 5.9145 14.4516 5.46279 14.4516C5.0117 14.4516 4.6458 14.8175 4.6458 15.2686V17.2299C4.64702 18.403 5.59764 19.3535 6.77074 19.3548H17.2306C18.4037 19.3536 19.3542 18.403 19.3555 17.2299V15.2686C19.3549 14.8175 18.9896 14.4522 18.5385 14.4516Z" fill="#3A3A3A"/>
<path d="M12.0008 4.64514C11.5497 4.64576 11.1844 5.01104 11.1838 5.46214V12.8703L8.60099 10.7184C8.25471 10.4303 7.73986 10.4769 7.45058 10.8232C7.16252 11.1701 7.20909 11.685 7.55538 11.9736L11.478 15.2422V15.2429C11.519 15.2717 11.5626 15.2974 11.6085 15.3182C11.6386 15.3385 11.6698 15.3562 11.7023 15.3722C11.8923 15.4525 12.1074 15.4525 12.2974 15.3722C12.3293 15.3562 12.3599 15.3385 12.3894 15.3189C12.4347 15.298 12.4789 15.2723 12.5199 15.2435L16.4425 11.9749V11.9742C16.7067 11.7548 16.8053 11.3932 16.6889 11.0702C16.573 10.7466 16.2672 10.5302 15.9234 10.529C15.7321 10.5296 15.5471 10.5964 15.4006 10.7184L12.8178 12.8703V5.46214C12.8172 5.01104 12.4519 4.64576 12.0008 4.64514Z" fill="#3A3A3A"/>
</svg>
