<svg width="210" height="27" viewBox="0 0 210 27" fill="none" xmlns="http://www.w3.org/2000/svg">
<g clip-path="url(#clip0_11_457)">
<path d="M11.699 0.0411682H12.1676L24.3353 26.647H18.5866L17.3349 23.6588H6.53172L5.27996 26.647H0L11.699 0.0411682ZM15.3712 19.1235L13.455 14.547C12.6719 12.6882 11.8532 9.81764 11.8532 9.81764C11.8532 9.81764 11.0701 12.6882 10.287 14.547L8.37081 19.1235H15.3712Z" fill="#8595AA"/>
<path d="M52.5743 26.6471H46.2383L41.8542 19.9765C41.344 20.053 40.7982 20.0941 40.288 20.0941H38.4074V26.6471H32.9316V0.270599H40.288C47.7215 0.270599 52.1827 3.80001 52.1827 10.2412C52.1827 14.353 50.3436 16.953 47.057 18.4235L52.5743 26.6471ZM40.1337 15.3588C44.595 15.3588 46.5468 13.9647 46.5468 10.2412C46.5468 6.51766 44.512 5.04707 40.1337 5.04707H38.4133V15.3647H40.1337V15.3588Z" fill="#8595AA"/>
<path d="M61.9536 0H62.3867L75.4917 14.2765L88.4009 0H88.8695V26.6471H83.5896V16.7588C83.5896 14.9765 83.7854 12.1412 83.7854 12.1412C83.7854 12.1412 82.1836 14.4706 80.9318 15.8647L75.6518 21.7176H75.1416L69.8617 15.8647C68.6099 14.4647 67.0081 12.1412 67.0081 12.1412C67.0081 12.1412 67.2039 14.9706 67.2039 16.7588V26.6471H61.9595V0H61.9536Z" fill="#8595AA"/>
<path d="M99.4294 0.270599H117.031V5.04119H104.905V13.4235H115.584V18.0765H104.905V21.8765H117.577V26.6471H99.4294V0.270599Z" fill="#8595AA"/>
<path d="M147.305 26.6471H140.969L136.585 19.9765C136.075 20.053 135.529 20.0941 135.019 20.0941H133.138V26.6471H127.662V0.270599H135.019C142.452 0.270599 146.908 3.80001 146.908 10.2412C146.908 14.353 145.068 16.953 141.782 18.4235L147.299 26.6471H147.305ZM134.864 15.3588C139.326 15.3588 141.283 13.9647 141.283 10.2412C141.283 6.51766 139.249 5.04707 134.864 5.04707H133.144V15.3647H134.864V15.3588Z" fill="#8595AA"/>
<path d="M156.18 17.1059V0.270599H161.656V16.7941C161.656 20.6353 163.335 22.1118 166.977 22.1118C170.62 22.1118 172.222 20.6353 172.222 16.7941V0.270599H177.697V17.1059C177.697 23.7765 173.04 27 166.977 27C160.914 27 156.18 23.7824 156.18 17.1059Z" fill="#8595AA"/>
<path d="M196.041 14.3882C194.712 13.147 192.873 10.7823 192.873 10.7823C192.873 10.7823 193.264 13.6882 193.264 15.5941V26.647H188.139V0.0411682H188.684L202.104 12.5294C203.397 13.7294 205.23 16.1353 205.23 16.1353C205.23 16.1353 204.88 13.147 204.88 11.3235V0.27058H210.006V26.8765H209.46L196.041 14.3882Z" fill="#8595AA"/>
</g>
<defs>
<clipPath id="clip0_11_457">
<rect width="210" height="27" fill="white"/>
</clipPath>
</defs>
</svg>
